<?xml version="1.0" standalone="no"?>
<!DOCTYPE svg PUBLIC "-//W3C//DTD SVG 20010904//EN"
 "http://www.w3.org/TR/2001/REC-SVG-20010904/DTD/svg10.dtd">
<svg version="1.0" xmlns="http://www.w3.org/2000/svg"
 width="110.000000pt" height="110.000000pt" viewBox="0 0 110.000000 110.000000"
 preserveAspectRatio="xMidYMid meet">
<metadata>
Created by potrace 1.11, written by Peter Selinger 2001-2013
</metadata>
<g transform="translate(0.000000,110.000000) scale(0.100000,-0.100000)"
fill="#000000" stroke="none">
<path d="M341 1076 c-36 -38 -32 -49 97 -281 55 -99 78 -125 112 -125 15 0 36
10 47 23 35 38 183 313 183 340 0 16 -10 34 -26 46 -25 20 -40 21 -209 21
-179 0 -182 0 -204 -24z"/>
<path d="M208 998 c-26 -9 -36 -23 -109 -153 -111 -200 -113 -206 -80 -246 19
-24 23 -24 198 -25 98 -1 188 2 201 7 33 12 49 53 35 90 -25 67 -176 317 -196
326 -14 6 -32 6 -49 1z"/>
<path d="M843 997 c-31 -14 -203 -318 -203 -359 0 -10 10 -29 23 -42 23 -23
28 -23 207 -23 178 0 185 1 207 23 13 13 23 33 23 46 0 22 -99 211 -161 309
-31 49 -59 63 -96 46z"/>
<path d="M50 522 c-29 -9 -50 -35 -50 -62 0 -37 170 -339 200 -355 45 -24 72
-3 135 108 137 239 140 247 106 288 -19 23 -23 24 -198 25 -98 1 -185 -1 -193
-4z"/>
<path d="M692 522 c-32 -5 -56 -45 -47 -79 6 -26 74 -155 148 -280 56 -95 104
-90 167 19 22 38 40 71 40 73 0 2 23 42 50 90 55 95 61 132 29 161 -19 17 -38
19 -193 20 -94 0 -181 -2 -194 -4z"/>
<path d="M503 408 c-36 -40 -183 -313 -183 -340 0 -17 10 -34 26 -47 25 -20
40 -21 209 -21 180 0 182 0 205 25 18 19 21 31 16 56 -7 35 -148 292 -179 327
-26 28 -68 28 -94 0z"/>
</g>
</svg>
